<svg width="22" height="22" viewBox="0 0 22 22" fill="none" xmlns="http://www.w3.org/2000/svg">
<g clip-path="url(#clip0_1779_578)">
<path d="M11.0469 13.5933L12.3431 14.8894L16.2334 11L12.344 7.1106L11.0478 8.40768L12.7226 10.0833L5.81365 10.0833V11.9167H12.7226L11.0469 13.5933Z" fill="black"/>
<path fill-rule="evenodd" clip-rule="evenodd" d="M18.1295 18.1299C22.0675 14.1919 22.0675 7.80819 18.1295 3.87019C14.1915 -0.067813 7.80784 -0.067813 3.86984 3.87019C-0.0681648 7.80819 -0.0681648 14.1919 3.86984 18.1299C7.80784 22.0679 14.1915 22.0679 18.1295 18.1299ZM16.8333 16.8337C18.3805 15.2865 19.2497 13.1881 19.2497 11C19.2497 8.81197 18.3805 6.71354 16.8333 5.16635C15.2862 3.61917 13.1877 2.74997 10.9997 2.74997C8.81162 2.74997 6.71319 3.61917 5.166 5.16635C3.61882 6.71354 2.74962 8.81197 2.74962 11C2.74962 13.1881 3.61882 15.2865 5.166 16.8337C6.71319 18.3809 8.81162 19.2501 10.9997 19.2501C13.1877 19.2501 15.2862 18.3809 16.8333 16.8337Z" fill="black"/>
</g>
<defs>
<clipPath id="clip0_1779_578">
<rect width="22" height="22" fill="white" transform="matrix(0 1 -1 0 22 0)"/>
</clipPath>
</defs>
</svg>
