<svg width="40" height="32" viewBox="0 0 40 32" fill="none" xmlns="http://www.w3.org/2000/svg">
<path d="M15.0389 30.9964C13.1205 26.9744 14.1427 24.6708 15.6165 22.4994C17.2308 20.1214 17.6483 17.7687 17.6483 17.7687C17.6483 17.7687 18.9188 19.4308 18.4095 22.0317C20.6517 19.5178 21.0764 15.5104 20.7363 13.9752C25.8057 17.544 27.9724 25.2707 25.0535 30.9982C40.5856 22.1478 28.9172 8.90381 26.8855 7.41212C27.5621 8.90381 27.6917 11.4286 26.3222 12.6557C24.0062 3.8125 18.2817 2 18.2817 2C18.9583 6.56025 15.8271 11.5483 12.8074 15.2748C12.7012 13.4568 12.5879 12.2008 11.6395 10.4608C11.4271 13.7649 8.92033 16.4583 8.2401 19.7679C7.32051 24.2503 8.92933 27.5327 15.0371 31L15.0389 30.9964Z" fill="black"/>
</svg>
