<svg width="40" height="30" viewBox="0 0 40 30" fill="none" xmlns="http://www.w3.org/2000/svg">
<path d="M13.6667 8.99998C17.3486 8.99998 20.3333 7.5076 20.3333 5.66665C20.3333 3.8257 17.3486 2.33331 13.6667 2.33331C9.98477 2.33331 7 3.8257 7 5.66665C7 7.5076 9.98477 8.99998 13.6667 8.99998Z" stroke="black" stroke-width="2" stroke-linecap="round" stroke-linejoin="round"/>
<path d="M7 5.66666C7 5.66666 7 8.49239 7 10.3333C7 12.1743 9.98477 13.6667 13.6667 13.6667C17.3485 13.6667 20.3333 12.1743 20.3333 10.3333C20.3333 9.24292 20.3333 5.66666 20.3333 5.66666" stroke="black" stroke-width="2" stroke-linecap="round" stroke-linejoin="round"/>
<path d="M7 10.3333C7 10.3333 7 13.159 7 15C7 16.8409 9.98477 18.3333 13.6667 18.3333C17.3485 18.3333 20.3333 16.8409 20.3333 15C20.3333 13.9096 20.3333 10.3333 20.3333 10.3333" stroke="black" stroke-width="2" stroke-linecap="round" stroke-linejoin="round"/>
<path d="M7 15C7 15 7 17.8257 7 19.6666C7 21.5076 9.98477 23 13.6667 23C17.3485 23 20.3333 21.5076 20.3333 19.6666C20.3333 18.5762 20.3333 15 20.3333 15" stroke="black" stroke-width="2" stroke-linecap="round" stroke-linejoin="round"/>
<path d="M7 19.6667C7 19.6667 7 22.4924 7 24.3333C7 26.1743 9.98477 27.6667 13.6667 27.6667C17.3485 27.6667 20.3333 26.1743 20.3333 24.3333C20.3333 23.2429 20.3333 19.6667 20.3333 19.6667" stroke="black" stroke-width="2" stroke-linecap="round" stroke-linejoin="round"/>
<path d="M26.9997 18.3333C30.6816 18.3333 33.6663 16.8409 33.6663 15C33.6663 13.159 30.6816 11.6666 26.9997 11.6666C23.3178 11.6666 20.333 13.159 20.333 15C20.333 16.8409 23.3178 18.3333 26.9997 18.3333Z" stroke="black" stroke-width="2" stroke-linecap="round" stroke-linejoin="round"/>
<path d="M20.333 15C20.333 15 20.333 17.8257 20.333 19.6666C20.333 21.5076 23.3178 23 26.9997 23C30.6815 23 33.6663 21.5076 33.6663 19.6666C33.6663 18.5762 33.6663 15 33.6663 15" stroke="black" stroke-width="2" stroke-linecap="round" stroke-linejoin="round"/>
<path d="M20.333 19.6667C20.333 19.6667 20.333 22.4924 20.333 24.3333C20.333 26.1743 23.3178 27.6667 26.9997 27.6667C30.6815 27.6667 33.6663 26.1743 33.6663 24.3333C33.6663 23.2429 33.6663 19.6667 33.6663 19.6667" stroke="black" stroke-width="2" stroke-linecap="round" stroke-linejoin="round"/>
</svg>
