<svg width="40" height="30" viewBox="0 0 40 30" fill="none" xmlns="http://www.w3.org/2000/svg">
<path d="M24.9091 11.75H33.7291L28.28 5.25H24.9091V11.75ZM29 25.5625C29.6382 25.5625 30.2109 25.3512 30.7018 24.8637C31.1927 24.3762 31.4545 23.8075 31.4545 23.125C31.4545 22.4913 31.1927 21.9225 30.7018 21.435C30.2109 20.9475 29.6382 20.6875 29 20.6875C28.3127 20.6875 27.74 20.9475 27.2491 21.435C26.7582 21.9225 26.5455 22.4913 26.5455 23.125C26.5455 23.8075 26.7582 24.3762 27.2491 24.8637C27.74 25.3512 28.3127 25.5625 29 25.5625ZM10.1818 25.5625C10.9018 25.5625 11.4909 25.3512 11.9491 24.8637C12.4073 24.3762 12.6364 23.8075 12.6364 23.125C12.6364 22.4913 12.4073 21.9225 11.9491 21.435C11.4909 20.9475 10.9018 20.6875 10.1818 20.6875C9.46182 20.6875 8.87273 20.9475 8.41455 21.435C7.95636 21.9225 7.72727 22.4913 7.72727 23.125C7.72727 23.8075 7.95636 24.3762 8.41455 24.8637C8.87273 25.3512 9.46182 25.5625 10.1818 25.5625ZM29.8182 2L38 11.75V23.125H33.9091C33.9091 24.4737 33.4018 25.6112 32.42 26.5862C31.4545 27.545 30.3091 28 29 28C27.6418 28 26.4964 27.545 25.5309 26.5862C24.5491 25.6112 24.0909 24.4737 24.0909 23.125H15.0909C15.0909 24.4737 14.6 25.6112 13.6345 26.5862C12.6364 27.545 11.5073 28 10.1818 28C8.85636 28 7.72727 27.545 6.72909 26.5862C5.76364 25.6112 5.27273 24.4737 5.27273 23.125H2V16.625H15.4018L5.27273 8.67875V13.375H2V3.625H3.63636L21.6364 13.4725V2H29.8182Z" fill="black"/>
</svg>
