<svg width="40" height="30" viewBox="0 0 40 30" fill="none" xmlns="http://www.w3.org/2000/svg">
<path d="M27.8761 12.0001H20.7511V14.6251C20.7511 16.486 19.237 18.0001 17.3761 18.0001C15.5151 18.0001 14.0011 16.486 14.0011 14.6251V8.92508L10.9589 10.7532C10.0542 11.2923 9.50107 12.272 9.50107 13.322V15.5391L5.75107 17.7048C5.03388 18.1173 4.78544 19.036 5.20263 19.7532L8.95263 26.2501C9.36513 26.9673 10.2839 27.211 11.0011 26.7985L15.8479 24.0001H22.2511C23.9058 24.0001 25.2511 22.6548 25.2511 21.0001H26.0011C26.8308 21.0001 27.5011 20.3298 27.5011 19.5001V16.5001H27.8761C28.4995 16.5001 29.0011 15.9985 29.0011 15.3751V13.1251C29.0011 12.5016 28.4995 12.0001 27.8761 12.0001ZM34.7995 10.247L31.0495 3.75008C30.637 3.0329 29.7183 2.78915 29.0011 3.20165L24.1542 6.00008H19.3636C18.8011 6.00008 18.2526 6.15946 17.7745 6.45477L16.2042 7.43446C15.7636 7.70633 15.5011 8.18915 15.5011 8.70477V14.6251C15.5011 15.661 16.3401 16.5001 17.3761 16.5001C18.412 16.5001 19.2511 15.661 19.2511 14.6251V10.5001H27.8761C29.3245 10.5001 30.5011 11.6766 30.5011 13.1251V14.461L34.2511 12.2954C34.9683 11.8782 35.212 10.9641 34.7995 10.247Z" fill="black"/>
</svg>
