<svg width="40" height="30" viewBox="0 0 40 30" fill="none" xmlns="http://www.w3.org/2000/svg">
<path d="M25.4999 14.9233C24.0543 14.9233 22.6565 14.2492 21.5624 13.0259C20.4986 11.8327 19.8489 10.2415 19.7343 8.54681C19.612 6.73902 20.14 5.07662 21.2207 3.86506C22.3014 2.65351 23.8124 2 25.4999 2C27.1755 2 28.6907 2.66525 29.7679 3.87387C30.8556 5.09424 31.3851 6.7537 31.2627 8.54607C31.1453 10.243 30.4963 11.8334 29.4346 13.0252C28.3434 14.2492 26.9462 14.9233 25.4999 14.9233ZM34.7692 27.8465H16.2313C15.9333 27.8482 15.6388 27.7784 15.3707 27.6426C15.1025 27.5068 14.8677 27.3085 14.6845 27.063C14.49 26.797 14.3558 26.4884 14.2917 26.1605C14.2277 25.8325 14.2355 25.4937 14.3146 25.1693C14.9066 22.6868 16.3734 20.6278 18.5559 19.2158C20.493 17.9632 22.9588 17.2729 25.4999 17.2729C28.0909 17.2729 30.4921 17.9338 32.4405 19.1857C34.6279 20.5904 36.0967 22.6611 36.6859 25.1738C36.7641 25.4983 36.771 25.8371 36.7063 26.1649C36.6415 26.4927 36.5067 26.801 36.3119 27.0667C36.1288 27.311 35.8946 27.5083 35.6272 27.6435C35.3598 27.7787 35.0663 27.8481 34.7692 27.8465ZM12.2109 15.217C9.73656 15.217 7.56109 12.8144 7.3593 9.86189C7.25945 8.34929 7.71086 6.95049 8.62492 5.92471C9.52914 4.9092 10.8046 4.34968 12.2109 4.34968C13.6171 4.34968 14.8827 4.91214 15.7919 5.93352C16.713 6.96738 17.163 8.36324 17.0575 9.86336C16.8557 12.8152 14.6809 15.217 12.2109 15.217ZM16.8276 17.5263C15.5908 16.8948 13.9855 16.5791 12.2116 16.5791C10.1402 16.5791 8.12851 17.143 6.54648 18.1666C4.75281 19.3289 3.54625 21.0214 3.05898 23.0649C2.98768 23.3588 2.98093 23.6658 3.03925 23.9628C3.09758 24.2599 3.21946 24.5393 3.39578 24.7802C3.56309 25.0045 3.77742 25.1857 4.02231 25.31C4.2672 25.4342 4.53611 25.4981 4.80836 25.4968H12.613C12.7448 25.4968 12.8723 25.4485 12.9734 25.3604C13.0746 25.2722 13.1429 25.1498 13.1664 25.0144C13.1741 24.9682 13.184 24.9219 13.1952 24.8764C13.7915 22.3754 15.1886 20.2622 17.253 18.7217C17.3289 18.6645 17.39 18.5885 17.4306 18.5004C17.4713 18.4124 17.4903 18.3152 17.4859 18.2175C17.4815 18.1199 17.4539 18.025 17.4055 17.9413C17.357 17.8576 17.2894 17.7879 17.2087 17.7385C17.0983 17.6709 16.9717 17.5997 16.8276 17.5263Z" fill="black"/>
</svg>
