<svg width="40" height="30" viewBox="0 0 40 30" fill="none" xmlns="http://www.w3.org/2000/svg">
<path d="M28.4 24.4C26.846 24.4 25.6 25.646 25.6 27.2C25.6 27.9426 25.895 28.6548 26.4201 29.1799C26.9452 29.705 27.6574 30 28.4 30C29.1426 30 29.8548 29.705 30.3799 29.1799C30.905 28.6548 31.2 27.9426 31.2 27.2C31.2 26.4574 30.905 25.7452 30.3799 25.2201C29.8548 24.695 29.1426 24.4 28.4 24.4ZM6 2V4.8H8.8L13.84 15.426L11.936 18.856C11.726 19.248 11.6 19.71 11.6 20.2C11.6 20.9426 11.895 21.6548 12.4201 22.1799C12.9452 22.705 13.6574 23 14.4 23H31.2V20.2H14.988C14.8952 20.2 14.8062 20.1631 14.7405 20.0975C14.6749 20.0318 14.638 19.9428 14.638 19.85C14.638 19.78 14.652 19.724 14.68 19.682L15.94 17.4H26.37C27.42 17.4 28.344 16.812 28.82 15.958L33.832 6.9C33.93 6.676 34 6.438 34 6.2C34 5.8287 33.8525 5.4726 33.59 5.21005C33.3274 4.9475 32.9713 4.8 32.6 4.8H11.894L10.578 2M14.4 24.4C12.846 24.4 11.6 25.646 11.6 27.2C11.6 27.9426 11.895 28.6548 12.4201 29.1799C12.9452 29.705 13.6574 30 14.4 30C15.1426 30 15.8548 29.705 16.3799 29.1799C16.905 28.6548 17.2 27.9426 17.2 27.2C17.2 26.4574 16.905 25.7452 16.3799 25.2201C15.8548 24.695 15.1426 24.4 14.4 24.4Z" fill="black"/>
</svg>
