<svg width="40" height="31" viewBox="0 0 40 31" fill="none" xmlns="http://www.w3.org/2000/svg">
<path d="M7 2.58331H9.58333V25.8333H32.8333V28.4166H7V2.58331ZM16.0417 12.9166C17.0694 12.9166 18.055 13.3249 18.7817 14.0516C19.5084 14.7783 19.9167 15.7639 19.9167 16.7916C19.9167 17.8194 19.5084 18.805 18.7817 19.5317C18.055 20.2584 17.0694 20.6666 16.0417 20.6666C15.014 20.6666 14.0283 20.2584 13.3016 19.5317C12.5749 18.805 12.1667 17.8194 12.1667 16.7916C12.1667 15.7639 12.5749 14.7783 13.3016 14.0516C14.0283 13.3249 15.014 12.9166 16.0417 12.9166ZM21.2083 2.58331C22.236 2.58331 23.2217 2.99157 23.9484 3.71827C24.6751 4.44498 25.0833 5.4306 25.0833 6.45831C25.0833 7.48603 24.6751 8.47165 23.9484 9.19835C23.2217 9.92505 22.236 10.3333 21.2083 10.3333C20.1806 10.3333 19.195 9.92505 18.4683 9.19835C17.7416 8.47165 17.3333 7.48603 17.3333 6.45831C17.3333 5.4306 17.7416 4.44498 18.4683 3.71827C19.195 2.99157 20.1806 2.58331 21.2083 2.58331ZM27.6667 15.5C28.6944 15.5 29.68 15.9082 30.4067 16.6349C31.1334 17.3616 31.5417 18.3473 31.5417 19.375C31.5417 20.4027 31.1334 21.3883 30.4067 22.115C29.68 22.8417 28.6944 23.25 27.6667 23.25C26.639 23.25 25.6533 22.8417 24.9266 22.115C24.1999 21.3883 23.7917 20.4027 23.7917 19.375C23.7917 18.3473 24.1999 17.3616 24.9266 16.6349C25.6533 15.9082 26.639 15.5 27.6667 15.5Z" fill="black"/>
</svg>
