<svg width="40" height="30" viewBox="0 0 40 30" fill="none" xmlns="http://www.w3.org/2000/svg">
<path d="M21.4061 3.40625V5.75H23.2529C23.8229 5.75 24.3836 5.9 24.8786 6.18313L27.2973 7.56313C27.3698 7.60438 27.4473 7.625 27.5298 7.625H31.7186C32.0915 7.625 32.4492 7.77316 32.7129 8.03688C32.9767 8.3006 33.1248 8.65829 33.1248 9.03125C33.1248 9.40421 32.9767 9.7619 32.7129 10.0256C32.4492 10.2893 32.0915 10.4375 31.7186 10.4375H30.9179L34.8761 19.235C34.993 19.4953 35.0281 19.785 34.9765 20.0656C34.9249 20.3463 34.7892 20.6046 34.5873 20.8062L33.5936 19.8125L34.5855 20.8081L34.5836 20.8119L34.5798 20.8156L34.5686 20.8269L34.5573 20.8362L34.5386 20.855L34.4542 20.93C34.0579 21.2613 33.6292 21.5425 33.1679 21.7737C32.2923 22.2125 31.0248 22.625 29.3748 22.625C28.0614 22.6404 26.7626 22.3489 25.5817 21.7737C25.1214 21.5439 24.6896 21.2607 24.2955 20.93L24.2111 20.855L24.1811 20.8269L24.1698 20.8156L24.1623 20.8081V20.8062C23.9605 20.6046 23.8247 20.3463 23.7732 20.0656C23.7216 19.785 23.7566 19.4953 23.8736 19.235L27.8336 10.4375H27.5298C26.958 10.4375 26.3973 10.2894 25.9023 10.0044L23.4836 8.62437C23.4128 8.58387 23.3326 8.56255 23.2511 8.5625H21.4061V26.375H26.0936C26.4665 26.375 26.8242 26.5232 27.0879 26.7869C27.3517 27.0506 27.4998 27.4083 27.4998 27.7812C27.4998 28.1542 27.3517 28.5119 27.0879 28.7756C26.8242 29.0393 26.4665 29.1875 26.0936 29.1875H13.9061C13.5331 29.1875 13.1754 29.0393 12.9117 28.7756C12.648 28.5119 12.4998 28.1542 12.4998 27.7812C12.4998 27.4083 12.648 27.0506 12.9117 26.7869C13.1754 26.5232 13.5331 26.375 13.9061 26.375H18.5936V8.5625H16.7486C16.667 8.56255 16.5869 8.58387 16.5161 8.62437L14.0992 10.0063C13.6023 10.2875 13.0417 10.4375 12.4698 10.4375H12.1661L16.1261 19.235C16.243 19.4953 16.2781 19.785 16.2265 20.0656C16.1749 20.3463 16.0392 20.6046 15.8373 20.8062L14.8436 19.8125L15.8354 20.8081L15.8336 20.8119L15.8298 20.8156L15.8186 20.8269L15.7886 20.855L15.7042 20.93C15.3079 21.2613 14.8792 21.5425 14.4179 21.7737C13.5423 22.2125 12.2748 22.625 10.6248 22.625C9.31143 22.6404 8.01258 22.3489 6.8317 21.7737C6.37135 21.5439 5.93964 21.2607 5.54545 20.93L5.46107 20.855L5.43107 20.8269L5.41982 20.8156L5.41232 20.8081V20.8062C5.21047 20.6046 5.07474 20.3463 5.02316 20.0656C4.97159 19.785 5.00661 19.4953 5.12357 19.235L9.08357 10.4375H8.28108C7.90811 10.4375 7.55043 10.2893 7.28671 10.0256C7.02298 9.7619 6.87482 9.40421 6.87482 9.03125C6.87482 8.65829 7.02298 8.3006 7.28671 8.03688C7.55043 7.77316 7.90811 7.625 8.28108 7.625H12.4698C12.552 7.62528 12.6329 7.60394 12.7042 7.56313L15.1192 6.18125C15.6161 5.9 16.1767 5.75 16.7486 5.75H18.5936V3.40625C18.5936 3.03329 18.7417 2.6756 19.0055 2.41188C19.2692 2.14816 19.6269 2 19.9998 2C20.3728 2 20.7305 2.14816 20.9942 2.41188C21.2579 2.6756 21.4061 3.03329 21.4061 3.40625ZM26.9279 19.3006C27.4623 19.5537 28.2742 19.8125 29.3748 19.8125C30.4754 19.8125 31.2873 19.5537 31.8217 19.3006L29.3748 13.8631L26.9279 19.3006ZM8.17795 19.3006C8.71233 19.5537 9.5242 19.8125 10.6248 19.8125C11.7254 19.8125 12.5373 19.5537 13.0717 19.3006L10.6248 13.8631L8.17795 19.3006Z" fill="black"/>
</svg>
