<svg width="40" height="30" viewBox="0 0 40 30" fill="none" xmlns="http://www.w3.org/2000/svg">
<path d="M12.5321 5.92899C12.4203 5.81719 12.4044 5.64153 12.5082 5.52176C12.62 5.402 12.8036 5.39403 12.9234 5.51379L14.8238 7.40625C14.9036 7.38235 14.9915 7.36629 15.0794 7.36629C15.5745 7.36629 15.9658 7.76555 15.9658 8.25258C15.9658 8.33239 15.9579 8.39637 15.9419 8.46821C15.9978 8.46024 16.0617 8.45227 16.1255 8.45227C16.6207 8.45227 17.0118 8.85153 17.0118 9.33868C17.0118 9.41051 17.0039 9.47438 16.9879 9.53825C17.0598 9.53028 17.1317 9.51422 17.2036 9.51422C17.6987 9.51422 18.09 9.91348 18.09 10.4006C18.09 10.4804 18.082 10.5443 18.0661 10.6163C18.1379 10.6083 18.2098 10.5923 18.2817 10.5923C18.7768 10.5923 19.1681 10.9916 19.1681 11.4786C19.1681 11.5505 19.1521 11.6304 19.1361 11.7022L20.3259 12.8841C20.5095 13.0677 20.813 13.0677 20.9967 12.892C21.1883 12.7084 21.1962 12.3969 21.0046 12.2053L19.4874 10.6962C19.3916 10.6004 19.3677 10.4407 19.4475 10.3289C19.5513 10.1773 19.7589 10.1612 19.8867 10.289L21.4358 11.8381C21.6194 12.0217 21.9069 12.0217 22.0986 11.854C22.2902 11.6783 22.2982 11.3749 22.1145 11.1832C21.6514 10.7121 20.5575 9.61817 20.5575 9.61817C20.4297 9.49043 20.4457 9.28278 20.6054 9.17895C20.7172 9.09915 20.8769 9.12305 20.9727 9.22688L22.5538 10.8159C22.7454 11.0075 23.0409 11.0075 23.2245 10.8239C23.4082 10.6403 23.4082 10.3129 23.2166 10.1213L21.6434 8.52422C21.5476 8.42836 21.5237 8.26864 21.6035 8.15696C21.7073 8.0052 21.9229 7.98926 22.0427 8.117L23.5918 9.69001C23.7754 9.88161 24.0789 9.88161 24.2705 9.69001C24.4542 9.50637 24.4542 9.20286 24.2705 9.01126L20.1262 4.86704C19.1041 3.88489 18.4174 4.43579 18.4174 4.43579L18.114 5.72942C18.0022 6.20051 17.5231 6.48797 17.0519 6.3443C16.6207 6.21657 16.3811 5.76141 16.477 5.32219C16.7086 4.30805 17.0839 2.69508 17.2116 2.10422C17.2995 1.72887 17.6988 1.29774 18.4494 1.4495C19.3916 1.64907 22.3861 2.32782 22.3861 2.32782L23.3523 1.25778C23.4561 1.14598 23.6318 1.13801 23.7436 1.24184L26.9935 4.18043C27.1133 4.28426 27.1292 4.45993 27.0174 4.58766L25.8915 5.82539C25.8915 5.82539 25.2527 6.80754 25.1409 6.97524C24.7975 7.47832 24.2306 7.72582 23.9111 7.83762L24.6937 8.6202C25.1009 9.02743 25.125 9.72211 24.7096 10.1214C24.3663 10.4568 23.9511 10.4249 23.935 10.4249C23.951 10.7123 23.8471 11.0078 23.6316 11.2234C23.2883 11.5668 22.8731 11.5268 22.8651 11.5188C22.8731 11.7983 22.7693 12.0778 22.5617 12.2933C22.3541 12.501 22.0906 12.5967 21.8191 12.5967C21.7872 12.5967 21.7552 12.5967 21.7232 12.5888C21.7153 12.8442 21.6035 13.0839 21.4198 13.2834C21.2042 13.523 20.5095 13.8345 19.9346 13.2834C19.6551 13.0119 18.8407 12.1895 18.8407 12.1895L17.8345 13.2036C17.6748 13.4193 17.4193 13.5629 17.1239 13.5629C16.6288 13.5629 16.2375 13.1637 16.2375 12.6765C16.2375 12.5967 16.2454 12.5327 16.2614 12.4609C16.1895 12.4689 16.1176 12.4848 16.0457 12.4848C15.5506 12.4848 15.1593 12.0856 15.1593 11.5984C15.1593 11.5266 15.1673 11.4627 15.1832 11.3988C15.1114 11.4068 15.0395 11.4227 14.9676 11.4227C14.4725 11.4227 14.0813 11.0235 14.0813 10.5365C14.0813 10.4566 14.0893 10.3927 14.1052 10.3208C14.0493 10.3288 13.9855 10.3368 13.9216 10.3368C13.4265 10.3368 13.0113 9.94547 13.0113 9.45036C13.0113 9.25875 13.0752 9.0511 13.211 8.89934C13.2269 8.8834 14.0813 8.01293 14.3608 7.73356L12.5321 5.92899ZM5 28.8314V22.6283C5 20.9162 6.42242 19.6206 7.94902 19.6206H15.5469V16.7231C15.5469 15.6963 16.4817 15.0503 17.5802 15.0503C17.5568 15.0503 21.8339 15.0503 21.8339 15.0503C22.9557 15.0503 23.8672 15.6963 23.8672 16.7231V19.5034H31.5839C33.1036 19.5034 34.5198 20.8144 34.5312 22.5468V28.8314H5ZM17.0703 19.6206H22.3438V16.6909H17.0703V19.6206Z" fill="black"/>
</svg>
