<svg width="24" height="24" viewBox="0 0 24 24" fill="none" xmlns="http://www.w3.org/2000/svg">
<path d="M18 9.75H16.5C16.4994 9.15345 16.2622 8.5815 15.8403 8.15967C15.4185 7.73784 14.8466 7.5006 14.25 7.5V6C15.2442 6.00119 16.1973 6.39666 16.9003 7.09966C17.6033 7.80267 17.9988 8.7558 18 9.75Z" fill="#EFBF01"/>
<path d="M21.0003 9.75001H19.5003C19.4983 8.35823 18.9445 7.02402 17.9604 6.03989C16.9762 5.05575 15.642 4.50199 14.2503 4.50001V3.00001C16.0399 3.00199 17.7556 3.71379 19.021 4.97923C20.2865 6.24467 20.9983 7.9604 21.0003 9.75001ZM15.25 16.1115L16.93 14.4315C17.155 14.2068 17.441 14.053 17.7525 13.989C18.064 13.925 18.3874 13.9537 18.6828 14.0715L20.7288 14.8905C21.0301 15.0114 21.2885 15.2197 21.4705 15.4886C21.6525 15.7576 21.75 16.0748 21.7503 16.3995V20.1203C21.7508 20.3414 21.7062 20.5603 21.6192 20.7636C21.5321 20.9669 21.4045 21.1504 21.2442 21.3026C21.0838 21.4549 20.8941 21.5729 20.6865 21.6493C20.479 21.7257 20.2581 21.7589 20.0373 21.747C5.69576 20.8545 2.79926 8.70751 2.26151 4.05601C2.23546 3.8286 2.25786 3.59826 2.32722 3.38013C2.39658 3.16201 2.51133 2.96104 2.66394 2.79044C2.81654 2.61984 3.00353 2.48349 3.21261 2.39034C3.42169 2.29719 3.64812 2.24937 3.87701 2.25001H7.53176C7.85649 2.2503 8.17371 2.34773 8.44262 2.52977C8.71154 2.7118 8.91984 2.97012 9.04076 3.27151L9.85901 5.31751C9.9768 5.61288 10.0055 5.9363 9.9415 6.24779C9.87752 6.55929 9.72369 6.84522 9.49901 7.07026L7.81901 8.75026C7.81901 8.75026 8.75051 15.2993 15.25 16.1115Z" fill="#EFBF01"/>
</svg>
