<svg width="32" height="32" viewBox="0 0 32 32" fill="none" xmlns="http://www.w3.org/2000/svg">
<path fill-rule="evenodd" clip-rule="evenodd" d="M21.4432 3C25.6169 3 29 6.3858 29 10.5568V22.4432C29 26.6169 25.6142 30 21.4432 30H9.55676C5.3831 30 2 26.6142 2 22.4432V10.5568C2 6.3831 5.3858 3 9.55676 3H21.4432ZM15.5 9.48C11.6228 9.48 8.48 12.6228 8.48 16.5C8.48 20.3772 11.6228 23.52 15.5 23.52C19.3772 23.52 22.52 20.3772 22.52 16.5C22.52 12.6228 19.3772 9.48 15.5 9.48ZM15.5 11.64C16.1382 11.64 16.7702 11.7657 17.3598 12.0099C17.9495 12.2542 18.4852 12.6122 18.9365 13.0635C19.3878 13.5148 19.7458 14.0505 19.9901 14.6402C20.2343 15.2298 20.36 15.8618 20.36 16.5C20.36 17.1382 20.2343 17.7702 19.9901 18.3598C19.7458 18.9495 19.3878 19.4852 18.9365 19.9365C18.4852 20.3878 17.9495 20.7458 17.3598 20.9901C16.7702 21.2343 16.1382 21.36 15.5 21.36C14.211 21.36 12.9749 20.848 12.0635 19.9365C11.152 19.0251 10.64 17.789 10.64 16.5C10.64 15.211 11.152 13.9749 12.0635 13.0635C12.9749 12.152 14.211 11.64 15.5 11.64ZM23.33 6.78C22.8287 6.78 22.348 6.97912 21.9936 7.33357C21.6391 7.68801 21.44 8.16874 21.44 8.67C21.44 9.17126 21.6391 9.65199 21.9936 10.0064C22.348 10.3609 22.8287 10.56 23.33 10.56C23.8313 10.56 24.312 10.3609 24.6664 10.0064C25.0209 9.65199 25.22 9.17126 25.22 8.67C25.22 8.16874 25.0209 7.68801 24.6664 7.33357C24.312 6.97912 23.8313 6.78 23.33 6.78Z" fill="white"/>
</svg>
