<svg width="23" height="30" viewBox="0 0 23 30" fill="none" xmlns="http://www.w3.org/2000/svg">
<path d="M23 12.2727C23 21.8182 11.5 30 11.5 30C11.5 30 0 21.8182 0 12.2727C4.54484e-08 9.0178 1.2116 5.89618 3.36827 3.5946C5.52494 1.29302 8.45001 0 11.5 0C14.55 0 17.4751 1.29302 19.6317 3.5946C21.7884 5.89618 23 9.0178 23 12.2727Z" fill="#ECE5DC"/>
<path d="M11.5 16.0713C13.433 16.0713 15 14.3924 15 12.3213C15 10.2502 13.433 8.57129 11.5 8.57129C9.567 8.57129 8 10.2502 8 12.3213C8 14.3924 9.567 16.0713 11.5 16.0713Z" fill="#353A4A"/>
</svg>
