<svg width="64" height="56" viewBox="0 0 64 56" fill="none" xmlns="http://www.w3.org/2000/svg">
<g filter="url(#filter0_d_1853_1344)">
<path d="M41.1656 25.9016H19.2811V17.2036H41.1656C42.4439 17.2036 43.3328 17.4274 43.7789 17.8182C44.225 18.2091 44.5013 18.9339 44.5013 19.9927V23.1158C44.5013 24.2315 44.225 24.9563 43.7789 25.3471C43.3328 25.738 42.4439 25.9016 41.1656 25.9016ZM42.667 9.00332H10V46.2002H19.2811V34.0986H36.3853L44.5013 46.2002H54.8941L45.9462 34.0419C49.2452 33.5506 50.7262 32.5355 51.9482 30.8618C53.1699 29.1884 53.7824 26.5129 53.7824 22.9422V20.153C53.7824 18.0353 53.5592 16.3619 53.1699 15.0792C52.7802 13.7966 52.1146 12.681 51.1693 11.6789C50.1706 10.7303 49.0585 10.0622 47.7235 9.61458C46.3889 9.22378 44.7211 9.00332 42.667 9.00332Z" fill="white"/>
</g>
<defs>
<filter id="filter0_d_1853_1344" x="-4" y="0" width="72" height="64" filterUnits="userSpaceOnUse" color-interpolation-filters="sRGB">
<feFlood flood-opacity="0" result="BackgroundImageFix"/>
<feColorMatrix in="SourceAlpha" type="matrix" values="0 0 0 0 0 0 0 0 0 0 0 0 0 0 0 0 0 0 127 0" result="hardAlpha"/>
<feOffset dy="4"/>
<feGaussianBlur stdDeviation="2"/>
<feComposite in2="hardAlpha" operator="out"/>
<feColorMatrix type="matrix" values="0 0 0 0 0 0 0 0 0 0 0 0 0 0 0 0 0 0 0.25 0"/>
<feBlend mode="normal" in2="BackgroundImageFix" result="effect1_dropShadow_1853_1344"/>
<feBlend mode="normal" in="SourceGraphic" in2="effect1_dropShadow_1853_1344" result="shape"/>
</filter>
</defs>
</svg>
