<svg width="32" height="32" viewBox="0 0 32 32" fill="none" xmlns="http://www.w3.org/2000/svg">
<g clip-path="url(#clip0_2578_65)">
<mask id="mask0_2578_65" style="mask-type:luminance" maskUnits="userSpaceOnUse" x="0" y="0" width="32" height="32">
<path d="M32 0H0V32H32V0Z" fill="white"/>
</mask>
<g mask="url(#mask0_2578_65)">
<path d="M29.4022 2.83884L1.0517 13.828C-0.08917 14.3397 -0.475045 15.3646 0.775955 15.9207L8.04908 18.2441L25.6346 7.31965C26.5948 6.63384 27.5778 6.81672 26.7319 7.57115L11.6283 21.3171L11.1539 27.1344C11.5933 28.0326 12.398 28.0367 12.9112 27.5903L17.0898 23.616L24.2464 29.0027C25.9086 29.9918 26.813 29.3535 27.1706 27.5406L31.8647 5.19865C32.3521 2.96709 31.521 1.98384 29.4022 2.83884Z" fill="#ECE5DC"/>
</g>
</g>
<defs>
<clipPath id="clip0_2578_65">
<rect width="32" height="32" fill="white"/>
</clipPath>
</defs>
</svg>
