<svg width="32" height="32" viewBox="0 0 32 32" fill="none" xmlns="http://www.w3.org/2000/svg">
<path fill-rule="evenodd" clip-rule="evenodd" d="M31.2467 7.38889C31.484 6.60556 31.2467 6.03611 30.1967 6.03611H26.7054C25.8247 6.03611 25.418 6.53472 25.1807 7.06806C25.1807 7.06806 23.3847 11.6236 20.8767 14.5771C20.0634 15.4312 19.6907 15.716 19.25 15.716C19.0127 15.716 18.7074 15.4313 18.7074 14.6486V7.35208C18.7074 6.42708 18.4367 6 17.6907 6H12.2C11.6573 6 11.3187 6.42708 11.3187 6.85417C11.3187 7.74375 12.5727 7.95764 12.708 10.4486V15.8611C12.708 17.0354 12.508 17.25 12.064 17.25C10.878 17.25 7.99734 12.659 6.26934 7.42778C5.93334 6.39167 5.59201 6 4.71067 6H1.186C0.169334 6 0 6.49792 0 7.03194C0 7.99306 1.186 12.8326 5.52401 19.2382C8.40468 23.6132 12.5053 25.9646 16.1994 25.9646C18.4367 25.9646 18.7074 25.4306 18.7074 24.541V21.2312C18.7074 20.1639 18.9107 19.9861 19.6227 19.9861C20.1307 19.9861 21.046 20.2701 23.1134 22.3701C25.4854 24.8611 25.892 26 27.214 26H30.7047C31.7214 26 32.196 25.466 31.9247 24.434C31.62 23.4021 30.4674 21.9076 28.976 20.1285C28.1627 19.1326 26.9427 18.0292 26.57 17.4951C26.062 16.7833 26.1974 16.4986 26.57 15.8583C26.536 15.8583 30.8067 9.52361 31.2467 7.38611" fill="#4C2F27"/>
</svg>
