<svg width="32" height="32" viewBox="0 0 32 32" fill="none" xmlns="http://www.w3.org/2000/svg">
<path d="M27.8999 8.48028C23.7199 2.00028 15.1599 0.0802774 8.53991 4.10028C2.07991 8.12028 -9.75132e-05 16.8802 4.17991 23.3402L4.51991 23.8602L3.11991 29.1002L8.35991 27.7002L8.87991 28.0402C11.1399 29.2602 13.5999 29.9602 16.0399 29.9602C18.6599 29.9602 21.2799 29.2602 23.5399 27.8602C29.9999 23.6602 31.9199 15.0802 27.8999 8.44028V8.48028ZM24.2399 21.9602C23.5399 23.0002 22.6599 23.7002 21.4399 23.8802C20.7399 23.8802 19.8599 24.2202 16.3799 22.8402C13.4199 21.4402 10.9599 19.1602 9.21991 16.5402C8.17991 15.3202 7.63991 13.7402 7.47991 12.1602C7.47991 10.7602 7.99991 9.54028 8.87991 8.66028C9.21991 8.32028 9.57991 8.14028 9.91991 8.14028H10.7999C11.1399 8.14028 11.4999 8.14028 11.6799 8.84028C12.0199 9.72028 12.8999 11.8202 12.8999 12.0002C13.0799 12.1802 12.9999 13.5202 12.1999 14.2802C11.7599 14.7802 11.6799 14.8002 11.8599 15.1602C12.5599 16.2002 13.4399 17.2602 14.2999 18.1402C15.3399 19.0202 16.3999 19.7202 17.6199 20.2402C17.9599 20.4202 18.3199 20.4202 18.4999 20.0602C18.6799 19.7202 19.5399 18.8402 19.8999 18.4802C20.2399 18.1402 20.4199 18.1402 20.7799 18.3002L23.5799 19.7002C23.9199 19.8802 24.2799 20.0402 24.4599 20.2202C24.6399 20.7402 24.6399 21.4402 24.2799 21.9602H24.2399Z" fill="#4C2F27"/>
</svg>
