<svg width="28" height="28" viewBox="0 0 28 28" fill="none" xmlns="http://www.w3.org/2000/svg">
<path d="M25.8999 6.48028C21.7199 0.000281334 13.1599 -1.91972 6.53991 2.10028C0.079906 6.12028 -2.0001 14.8802 2.17991 21.3402L2.51991 21.8602L1.11991 27.1002L6.35991 25.7002L6.87991 26.0402C9.13988 27.2602 11.5999 27.9602 14.0399 27.9602C16.6599 27.9602 19.2799 27.2602 21.5399 25.8602C27.9999 21.6602 29.9199 13.0802 25.8999 6.44028V6.48028ZM22.2399 19.9602C21.5399 21.0002 20.6599 21.7002 19.4399 21.8802C18.7399 21.8802 17.8599 22.2202 14.3799 20.8402C11.4199 19.4402 8.95988 17.1602 7.21991 14.5402C6.17991 13.3202 5.63991 11.7402 5.47991 10.1602C5.47991 8.76024 5.99991 7.54028 6.87991 6.66028C7.21991 6.32028 7.57991 6.14028 7.91991 6.14028H8.79988C9.13988 6.14028 9.49988 6.14028 9.67988 6.84028C10.0199 7.72028 10.8999 9.82024 10.8999 10.0002C11.0799 10.1802 10.9999 11.5202 10.1999 12.2802C9.75988 12.7802 9.67988 12.8002 9.85988 13.1602C10.5599 14.2002 11.4399 15.2602 12.2999 16.1402C13.3399 17.0202 14.3999 17.7202 15.6199 18.2402C15.9599 18.4202 16.3199 18.4202 16.4999 18.0602C16.6799 17.7202 17.5399 16.8402 17.8999 16.4802C18.2399 16.1402 18.4199 16.1402 18.7799 16.3002L21.5799 17.7002C21.9199 17.8802 22.2799 18.0402 22.4599 18.2202C22.6399 18.7402 22.6399 19.4402 22.2799 19.9602H22.2399Z" fill="#ECE5DC"/>
</svg>
