<svg width="32" height="32" viewBox="0 0 32 32" fill="none" xmlns="http://www.w3.org/2000/svg">
<g clip-path="url(#clip0_1718_154)">
<path d="M31.682 9.6C31.682 9.6 31.37 7.394 30.408 6.426C29.19 5.152 27.826 5.144 27.202 5.07C22.728 4.744 16.008 4.744 16.008 4.744H15.996C15.996 4.744 9.27801 4.744 4.80201 5.07C4.17601 5.146 2.81401 5.152 1.59601 6.426C0.63401 7.394 0.32801 9.6 0.32801 9.6C0.32801 9.6 0.0100098 12.188 0.0100098 14.782V17.208C0.0100098 19.796 0.32801 22.39 0.32801 22.39C0.32801 22.39 0.64001 24.596 1.59601 25.566C2.81401 26.84 4.41401 26.798 5.12801 26.934C7.69001 27.178 16.01 27.252 16.01 27.252C16.01 27.252 22.736 27.24 27.21 26.92C27.836 26.846 29.198 26.838 30.416 25.564C31.378 24.596 31.69 22.388 31.69 22.388C31.69 22.388 32.008 19.8 32.008 17.206V14.78C32.002 12.192 31.684 9.598 31.684 9.598L31.682 9.6ZM12.694 20.15V11.156L21.338 15.668L12.694 20.15Z" fill="white"/>
</g>
<defs>
<clipPath id="clip0_1718_154">
<rect width="32" height="32" fill="white"/>
</clipPath>
</defs>
</svg>
