<svg width="249" height="81" viewBox="0 0 249 81" fill="none" xmlns="http://www.w3.org/2000/svg">
<path d="M158.449 52.8261C156.743 52.8261 155.217 52.4247 153.871 51.622C152.525 50.795 151.48 49.7004 150.735 48.3383C149.99 46.9518 149.617 45.4558 149.617 43.8504C149.617 42.0018 150.086 40.3964 151.023 39.0342C151.984 37.672 153.198 36.6382 154.664 35.9328C156.154 35.2274 157.68 34.8747 159.243 34.8747C160.949 34.8747 162.451 35.3004 163.749 36.1518C165.071 36.9788 166.092 38.0734 166.813 39.4355C167.534 40.7734 167.895 42.1842 167.895 43.668C167.895 45.2977 167.474 46.818 166.633 48.2288C165.792 49.6153 164.65 50.7342 163.208 51.5855C161.766 52.4126 160.18 52.8261 158.449 52.8261ZM159.279 51.9869C160.624 51.9869 161.706 51.318 162.523 49.9801C163.364 48.6423 163.785 46.7937 163.785 44.4342C163.785 42.8288 163.544 41.3693 163.064 40.0558C162.583 38.7423 161.898 37.7085 161.009 36.9545C160.144 36.1761 159.134 35.7869 157.981 35.7869C156.587 35.7869 155.529 36.3707 154.808 37.5382C154.087 38.7058 153.727 40.4328 153.727 42.7193C153.727 44.4464 153.967 46.0274 154.448 47.4626C154.953 48.8734 155.625 49.9801 156.467 50.7828C157.308 51.5855 158.245 51.9869 159.279 51.9869Z" fill="white"/>
<path d="M148.76 35.3126C148.808 35.3126 148.832 35.3856 148.832 35.5315C148.832 35.6774 148.808 35.7504 148.76 35.7504C148.063 35.7504 147.427 36.0423 146.85 36.6261C146.273 37.2099 145.792 38.0126 145.408 39.0342L140.325 52.3518C140.301 52.4491 140.168 52.4977 139.928 52.4977C139.688 52.4977 139.556 52.4491 139.532 52.3518L132.862 38.341C132.382 37.3193 131.961 36.6383 131.601 36.2977C131.24 35.9329 130.747 35.7504 130.122 35.7504C130.05 35.7504 130.014 35.6774 130.014 35.5315C130.014 35.3856 130.05 35.3126 130.122 35.3126L131.709 35.3491C132.622 35.3977 133.499 35.422 134.34 35.422C135.013 35.422 135.806 35.3977 136.72 35.3491L138.306 35.3126C138.354 35.3126 138.378 35.3856 138.378 35.5315C138.378 35.6774 138.354 35.7504 138.306 35.7504C137.056 35.7504 136.431 36.1274 136.431 36.8815C136.431 37.1491 136.527 37.5139 136.72 37.9761L141.226 47.5356L144.434 38.8153C144.627 38.2802 144.723 37.818 144.723 37.4288C144.723 36.3099 143.978 35.7504 142.488 35.7504C142.416 35.7504 142.38 35.6774 142.38 35.5315C142.38 35.3856 142.416 35.3126 142.488 35.3126L143.749 35.3491C144.518 35.3977 145.276 35.422 146.021 35.422C146.429 35.422 146.898 35.3977 147.427 35.3491L148.76 35.3126Z" fill="white"/>
<path d="M132.953 51.9504C133.073 51.9504 133.133 52.0234 133.133 52.1693C133.133 52.3153 133.073 52.3882 132.953 52.3882C132.448 52.3882 131.691 52.3639 130.682 52.3153C129.624 52.2666 128.879 52.2423 128.446 52.2423C128.038 52.2423 127.401 52.2666 126.536 52.3153C125.719 52.3639 125.142 52.3882 124.805 52.3882C124.709 52.3882 124.661 52.3153 124.661 52.1693C124.661 52.0234 124.709 51.9504 124.805 51.9504C125.358 51.9504 125.743 51.8896 125.959 51.768C126.199 51.622 126.319 51.4153 126.319 51.1477C126.319 50.8072 126.115 50.1991 125.707 49.3234L123.544 44.6166H119.362L117.992 47.9004C117.559 48.922 117.343 49.7247 117.343 50.3085C117.343 50.8923 117.547 51.318 117.956 51.5855C118.364 51.8288 119.001 51.9504 119.866 51.9504C119.987 51.9504 120.047 52.0234 120.047 52.1693C120.047 52.3153 119.987 52.3882 119.866 52.3882C119.53 52.3882 119.049 52.3639 118.424 52.3153C117.752 52.2666 117.127 52.2423 116.55 52.2423C115.949 52.2423 115.24 52.2666 114.423 52.3153C113.702 52.3639 113.113 52.3882 112.656 52.3882C112.536 52.3882 112.476 52.3153 112.476 52.1693C112.476 52.0234 112.536 51.9504 112.656 51.9504C113.401 51.9504 114.002 51.8409 114.459 51.622C114.916 51.4031 115.336 50.9896 115.721 50.3815C116.129 49.7734 116.598 48.8369 117.127 47.572L122.534 34.7653C122.582 34.668 122.654 34.6193 122.75 34.6193C122.847 34.6193 122.919 34.668 122.967 34.7653L128.735 47.3896C129.336 48.7031 129.828 49.6761 130.213 50.3085C130.621 50.9409 131.03 51.3788 131.439 51.622C131.847 51.8409 132.352 51.9504 132.953 51.9504ZM119.758 43.668H123.111L121.345 39.8369L119.758 43.668Z" fill="white"/>
<path d="M113.562 51.9504C113.634 51.9504 113.67 52.0234 113.67 52.1693C113.67 52.3153 113.634 52.3883 113.562 52.3883H107.65C107.29 52.3883 106.641 51.6585 105.703 50.1991C104.79 48.7396 103.697 46.7328 102.423 44.1788C101.918 44.2518 101.413 44.2882 100.909 44.2882H100.296V49.4328C100.296 50.1869 100.344 50.7342 100.44 51.0747C100.56 51.4153 100.765 51.6464 101.053 51.768C101.365 51.8896 101.858 51.9504 102.531 51.9504C102.579 51.9504 102.603 52.0234 102.603 52.1693C102.603 52.3153 102.579 52.3883 102.531 52.3883C101.81 52.3883 101.245 52.3761 100.837 52.3518L98.3852 52.3153L96.0419 52.3518C95.6093 52.3761 95.0085 52.3883 94.2394 52.3883C94.1914 52.3883 94.1673 52.3153 94.1673 52.1693C94.1673 52.0234 94.1914 51.9504 94.2394 51.9504C94.9124 51.9504 95.4051 51.8896 95.7175 51.768C96.0299 51.6464 96.2462 51.4153 96.3664 51.0747C96.4866 50.7099 96.5466 50.1626 96.5466 49.4328V38.268C96.5466 37.5382 96.4866 37.0031 96.3664 36.6626C96.2703 36.322 96.066 36.0909 95.7535 35.9693C95.4411 35.8234 94.9604 35.7504 94.3115 35.7504C94.2394 35.7504 94.2034 35.6774 94.2034 35.5315C94.2034 35.3855 94.2394 35.3126 94.3115 35.3126L96.078 35.349C97.0393 35.3977 97.8084 35.422 98.3852 35.422C98.8418 35.422 99.2624 35.4099 99.6469 35.3855C100.031 35.3612 100.368 35.3369 100.656 35.3126C101.449 35.2396 102.194 35.2031 102.891 35.2031C104.766 35.2031 106.196 35.5072 107.181 36.1153C108.167 36.7234 108.659 37.5991 108.659 38.7423C108.659 39.6909 108.359 40.5666 107.758 41.3693C107.157 42.172 106.328 42.8288 105.271 43.3396C106.569 45.5531 107.686 47.2801 108.623 48.5207C109.561 49.7612 110.414 50.6491 111.183 51.1842C111.952 51.695 112.745 51.9504 113.562 51.9504ZM100.296 43.5585C100.464 43.5828 100.752 43.595 101.161 43.595C102.531 43.595 103.48 43.2788 104.009 42.6464C104.538 41.9896 104.802 41.0166 104.802 39.7274C104.802 37.1977 103.889 35.9328 102.062 35.9328C101.558 35.9328 101.185 35.9936 100.945 36.1153C100.704 36.2369 100.536 36.468 100.44 36.8085C100.344 37.1247 100.296 37.6355 100.296 38.3409V43.5585Z" fill="white"/>
<path d="M81.0186 49.2869C81.0186 50.0653 81.1027 50.6369 81.2709 51.0018C81.4391 51.3423 81.7516 51.5856 82.2082 51.7315C82.6889 51.8775 83.4459 51.9504 84.4794 51.9504C84.5515 51.9504 84.5875 52.0234 84.5875 52.1694C84.5875 52.3153 84.5515 52.3883 84.4794 52.3883C83.494 52.3883 82.7249 52.3761 82.1722 52.3518L79.0358 52.3153L76.4042 52.3518C75.9235 52.3761 75.2746 52.3883 74.4574 52.3883C74.3853 52.3883 74.3493 52.3153 74.3493 52.1694C74.3493 52.0234 74.3853 51.9504 74.4574 51.9504C75.2265 51.9504 75.7793 51.8896 76.1158 51.768C76.4762 51.6464 76.7166 51.4153 76.8368 51.0748C76.9569 50.7099 77.017 50.1626 77.017 49.4329V32.5396C77.017 31.8099 76.9569 31.2747 76.8368 30.9342C76.7166 30.5937 76.4762 30.3626 76.1158 30.241C75.7552 30.095 75.2025 30.022 74.4574 30.022C74.3853 30.022 74.3493 29.9491 74.3493 29.8031C74.3493 29.6572 74.3853 29.5842 74.4574 29.5842L76.3681 29.6207C77.4736 29.6693 78.3509 29.6937 78.9998 29.6937C79.5766 29.6937 80.2615 29.6572 81.0546 29.5842C81.367 29.5599 81.7636 29.5356 82.2443 29.5112C82.7249 29.4869 83.2777 29.4747 83.9026 29.4747C86.354 29.4747 88.2887 29.9977 89.7066 31.0437C91.1246 32.0653 91.8336 33.6585 91.8336 35.8234C91.8336 37.3315 91.449 38.6085 90.68 39.6545C89.9109 40.7004 88.9135 41.491 87.6878 42.0261C86.4862 42.5612 85.2484 42.8288 83.9747 42.8288C83.3258 42.8288 82.761 42.768 82.2803 42.6464C82.2322 42.6464 82.2082 42.5856 82.2082 42.4639C82.2082 42.391 82.2202 42.318 82.2443 42.245C82.2923 42.172 82.3404 42.1477 82.3885 42.172C82.749 42.2693 83.1575 42.318 83.6142 42.318C84.7197 42.318 85.633 41.795 86.354 40.7491C87.099 39.7031 87.4715 38.2193 87.4715 36.2977C87.4715 34.3761 87.063 32.8923 86.2458 31.8464C85.4527 30.8004 84.2871 30.2774 82.749 30.2774C82.076 30.2774 81.6194 30.4356 81.3791 30.7518C81.1387 31.068 81.0186 31.6883 81.0186 32.6126V49.2869Z" fill="white"/>
<path d="M248.567 47.5356C248.615 47.4626 248.7 47.4261 248.82 47.4261C248.94 47.4261 249 47.4626 249 47.5356C248.832 49.2869 248.748 50.7221 248.748 51.841C248.748 52.0356 248.712 52.1815 248.639 52.2788C248.567 52.3518 248.423 52.3883 248.207 52.3883H234.652C234.604 52.3883 234.58 52.3153 234.58 52.1694C234.58 52.0234 234.604 51.9504 234.652 51.9504C235.349 51.9504 235.854 51.8896 236.166 51.768C236.479 51.6464 236.695 51.4153 236.815 51.0748C236.935 50.7099 236.995 50.1626 236.995 49.4329V38.268C236.995 37.5383 236.935 37.0031 236.815 36.6626C236.695 36.322 236.467 36.091 236.13 35.9693C235.818 35.8234 235.325 35.7504 234.652 35.7504C234.604 35.7504 234.58 35.6774 234.58 35.5315C234.58 35.3856 234.604 35.3126 234.652 35.3126H247.558C247.798 35.3126 247.919 35.4099 247.919 35.6045L247.955 37.8666C247.979 38.3288 247.991 38.9126 247.991 39.618C247.991 39.691 247.918 39.7275 247.774 39.7275C247.654 39.7275 247.582 39.691 247.558 39.618C247.101 38.5477 246.404 37.6477 245.467 36.918C244.53 36.1639 243.58 35.7869 242.619 35.7869H242.367C241.838 35.7869 241.441 35.8599 241.177 36.0058C240.937 36.1274 240.769 36.3585 240.672 36.6991C240.6 37.0396 240.564 37.5747 240.564 38.3045V43.2302C242.391 43.2058 243.737 43.1329 244.602 43.0112C245.467 42.8896 245.96 42.8288 246.08 42.8288C246.248 42.8288 246.332 43.0964 246.332 43.6315C246.332 43.8748 246.308 44.0937 246.26 44.2883C246.212 44.4829 246.152 44.5802 246.08 44.5802C245.936 44.5802 245.431 44.5193 244.566 44.3977C243.701 44.2761 242.367 44.191 240.564 44.1423V49.2869C240.564 50.0167 240.6 50.5518 240.672 50.8923C240.769 51.2329 240.937 51.4761 241.177 51.6221C241.441 51.7437 241.838 51.8045 242.367 51.8045H242.763C243.893 51.8045 245.01 51.4031 246.116 50.6004C247.222 49.7734 248.039 48.7518 248.567 47.5356Z" fill="white"/>
<path d="M232.505 51.9504C232.553 51.9504 232.577 52.0234 232.577 52.1694C232.577 52.3153 232.553 52.3883 232.505 52.3883C231.856 52.3883 231.339 52.3761 230.954 52.3518L228.791 52.3153L226.34 52.3518C225.931 52.3761 225.367 52.3883 224.646 52.3883C224.598 52.3883 224.574 52.3153 224.574 52.1694C224.574 52.0234 224.598 51.9504 224.646 51.9504C225.535 51.9504 226.136 51.8288 226.448 51.5856C226.761 51.3423 226.917 50.8437 226.917 50.0896L226.268 38.195L220.644 52.1329C220.596 52.2302 220.512 52.2788 220.392 52.2788C220.247 52.2788 220.151 52.2302 220.103 52.1329L213.326 38.8153L213.182 47.7545C213.158 49.1896 213.362 50.2477 213.795 50.9288C214.251 51.6099 214.948 51.9504 215.885 51.9504C215.958 51.9504 215.994 52.0234 215.994 52.1694C215.994 52.3153 215.958 52.3883 215.885 52.3883C215.309 52.3883 214.864 52.3761 214.552 52.3518L212.821 52.3153L211.055 52.3518C210.742 52.3761 210.274 52.3883 209.649 52.3883C209.601 52.3883 209.577 52.3153 209.577 52.1694C209.577 52.0234 209.601 51.9504 209.649 51.9504C210.61 51.9504 211.307 51.6099 211.74 50.9288C212.196 50.2477 212.437 49.1896 212.461 47.7545L212.605 37.5747C211.812 36.3585 210.85 35.7504 209.721 35.7504C209.673 35.7504 209.649 35.6774 209.649 35.5315C209.649 35.3856 209.673 35.3126 209.721 35.3126L212.713 35.3491L214.948 35.3126C215.285 35.3126 215.561 35.4342 215.777 35.6774C215.994 35.8964 216.294 36.4072 216.679 37.2099L221.87 47.3531L226.34 36.2247C226.436 35.9572 226.592 35.7383 226.809 35.568C227.025 35.3977 227.241 35.3126 227.458 35.3126L229.693 35.3491L232.432 35.3126C232.48 35.3126 232.505 35.3856 232.505 35.5315C232.505 35.6774 232.48 35.7504 232.432 35.7504C231.519 35.7504 230.87 35.9207 230.486 36.2612C230.101 36.5774 229.945 37.222 230.017 38.195L230.666 49.4329C230.714 50.1869 230.774 50.7342 230.846 51.0748C230.942 51.4153 231.111 51.6464 231.351 51.768C231.591 51.8896 231.976 51.9504 232.505 51.9504Z" fill="white"/>
<path d="M205.26 49.4329C205.26 50.1626 205.32 50.7099 205.44 51.0748C205.561 51.4153 205.777 51.6464 206.089 51.768C206.402 51.8896 206.907 51.9504 207.604 51.9504C207.652 51.9504 207.676 52.0234 207.676 52.1694C207.676 52.3153 207.652 52.3883 207.604 52.3883C206.858 52.3883 206.282 52.3761 205.873 52.3518L203.422 52.3153L201.078 52.3518C200.646 52.3761 200.045 52.3883 199.276 52.3883C199.228 52.3883 199.204 52.3153 199.204 52.1694C199.204 52.0234 199.228 51.9504 199.276 51.9504C199.973 51.9504 200.478 51.8896 200.79 51.768C201.127 51.6464 201.355 51.4153 201.475 51.0748C201.595 50.7099 201.655 50.1626 201.655 49.4329V38.268C201.655 37.5383 201.595 37.0031 201.475 36.6626C201.355 36.322 201.127 36.091 200.79 35.9693C200.478 35.8234 199.973 35.7504 199.276 35.7504C199.228 35.7504 199.204 35.6774 199.204 35.5315C199.204 35.3856 199.228 35.3126 199.276 35.3126L201.078 35.3491C202.04 35.3977 202.821 35.422 203.422 35.422C204.071 35.422 204.9 35.3977 205.909 35.3491L207.604 35.3126C207.652 35.3126 207.676 35.3856 207.676 35.5315C207.676 35.6774 207.652 35.7504 207.604 35.7504C206.931 35.7504 206.426 35.8234 206.089 35.9693C205.777 36.1153 205.561 36.3707 205.44 36.7356C205.32 37.0761 205.26 37.6112 205.26 38.341V49.4329Z" fill="white"/>
<path d="M184.084 30.4234C181.224 30.4234 179.169 32.3085 177.919 36.0788C177.895 36.1518 177.823 36.1883 177.703 36.1883C177.583 36.1639 177.523 36.1153 177.523 36.0423C177.619 35.0693 177.727 33.8166 177.847 32.2842C177.967 30.7274 178.027 29.5599 178.027 28.7815C178.027 28.6599 178.087 28.5991 178.207 28.5991C178.352 28.5991 178.424 28.6599 178.424 28.7815C178.424 29.3166 179.109 29.5842 180.479 29.5842C182.545 29.6572 184.961 29.6937 187.725 29.6937C189.143 29.6937 190.645 29.6693 192.231 29.6207L194.682 29.5842C195.596 29.5842 196.257 29.5234 196.665 29.4018C197.098 29.2801 197.374 29.0369 197.494 28.672C197.518 28.5747 197.59 28.5261 197.711 28.5261C197.855 28.5261 197.927 28.5747 197.927 28.672C197.855 29.4018 197.771 30.5693 197.675 32.1747C197.602 33.7801 197.566 35.0693 197.566 36.0423C197.566 36.1153 197.506 36.1518 197.386 36.1518C197.266 36.1518 197.194 36.1153 197.17 36.0423C196.809 34.1693 196.136 32.7707 195.151 31.8464C194.166 30.8977 192.952 30.4234 191.51 30.4234C190.813 30.4234 190.344 30.5815 190.104 30.8977C189.888 31.1896 189.78 31.7612 189.78 32.6126V49.4329C189.78 50.1869 189.852 50.7342 189.996 51.0748C190.14 51.4153 190.416 51.6464 190.825 51.768C191.234 51.8896 191.882 51.9504 192.772 51.9504C192.844 51.9504 192.88 52.0234 192.88 52.1693C192.88 52.3153 192.844 52.3883 192.772 52.3883C191.906 52.3883 191.222 52.3761 190.717 52.3518L187.725 52.3153L184.805 52.3518C184.3 52.3761 183.603 52.3883 182.714 52.3883C182.642 52.3883 182.606 52.3153 182.606 52.1693C182.606 52.0234 182.642 51.9504 182.714 51.9504C183.579 51.9504 184.216 51.8896 184.624 51.768C185.057 51.6464 185.345 51.4153 185.49 51.0748C185.658 50.7099 185.742 50.1626 185.742 49.4329V32.5396C185.742 31.7126 185.634 31.1531 185.417 30.8612C185.201 30.5693 184.757 30.4234 184.084 30.4234Z" fill="white"/>
<path fill-rule="evenodd" clip-rule="evenodd" d="M34.3145 3.02012L64.3092 8.35995L60.4061 60.3005L34.3171 77.6593L6.92966 60.3043L3.02611 8.35816L34.3145 3.02012ZM3.60884 8.81502L7.45429 59.988L34.3099 77.006L59.8809 59.9918L63.7268 8.81324L34.3125 3.57675L3.60884 8.81502Z" fill="white"/>
<path fill-rule="evenodd" clip-rule="evenodd" d="M34.3736 0L67.3352 5.80172L63.0535 62.1362L34.3789 81L4.28253 62.1438L0 5.79817L34.3736 0ZM1.16645 6.71362L5.33104 61.5075L34.3645 79.6977L62.0039 61.515L66.1693 6.71007L34.3697 1.11288L1.16645 6.71362Z" fill="white"/>
<path fill-rule="evenodd" clip-rule="evenodd" d="M23.3711 57.5902H45.0581V59.7215H49.253V63.8968H19.1762V59.7215H23.3711V57.5902ZM24.4648 59.7215H43.9644V58.687H24.4648V59.7215ZM20.2699 60.8183V62.8H48.1593V60.8183H20.2699Z" fill="white"/>
<path fill-rule="evenodd" clip-rule="evenodd" d="M30.3866 56.4934V41.9608H31.4803V56.4934H30.3866Z" fill="white"/>
<path fill-rule="evenodd" clip-rule="evenodd" d="M37.2223 56.4934V41.9608H38.316V56.4934H37.2223Z" fill="white"/>
<path fill-rule="evenodd" clip-rule="evenodd" d="M28.1992 56.4934V49.9126H29.2929V56.4934H28.1992Z" fill="white"/>
<path fill-rule="evenodd" clip-rule="evenodd" d="M13.9811 21.3957V17.8311H15.0748V21.3957H13.9811Z" fill="white"/>
<path fill-rule="evenodd" clip-rule="evenodd" d="M52.8075 21.3957V17.8311H53.9012V21.3957H52.8075Z" fill="white"/>
<path fill-rule="evenodd" clip-rule="evenodd" d="M39.4097 56.4934V49.9126H40.5034V56.4934H39.4097Z" fill="white"/>
<path fill-rule="evenodd" clip-rule="evenodd" d="M15.0866 38.0534H22.4454L18.766 23.3715L15.0866 38.0534ZM18.2357 20.9878H19.2964L23.848 39.1502H13.6841L18.2357 20.9878Z" fill="white"/>
<path fill-rule="evenodd" clip-rule="evenodd" d="M45.4369 38.0534H52.7957L49.1163 23.3715L45.4369 38.0534ZM48.5859 20.9878H49.6467L54.1983 39.1502H44.0343L48.5859 20.9878Z" fill="white"/>
<path fill-rule="evenodd" clip-rule="evenodd" d="M18.0825 38.3961V22.7667H19.1762V38.3961H18.0825Z" fill="white"/>
<path fill-rule="evenodd" clip-rule="evenodd" d="M48.7062 38.3961V22.7667H49.7999V38.3961H48.7062Z" fill="white"/>
<path fill-rule="evenodd" clip-rule="evenodd" d="M18.0825 44.7028V40.3155H19.1762V44.7028H18.0825Z" fill="white"/>
<path fill-rule="evenodd" clip-rule="evenodd" d="M48.7062 44.7028V40.3155H49.7999V44.7028H48.7062Z" fill="white"/>
<path fill-rule="evenodd" clip-rule="evenodd" d="M13.6405 40.0413H23.8915L21.4147 44.977H16.1174L13.6405 40.0413ZM15.4153 41.1381L16.7913 43.8802H20.7407L22.1167 41.1381H15.4153Z" fill="white"/>
<path fill-rule="evenodd" clip-rule="evenodd" d="M43.9908 40.0413H54.2418L51.765 44.977H46.4676L43.9908 40.0413ZM45.7656 41.1381L47.1416 43.8802H51.091L52.467 41.1381H45.7656Z" fill="white"/>
<path fill-rule="evenodd" clip-rule="evenodd" d="M36.1286 9.33086H32.574V8.23406L36.1286 8.23406V9.33086Z" fill="white"/>
<path fill-rule="evenodd" clip-rule="evenodd" d="M30.2499 18.6537H15.6216V19.7505H31.3436L30.2499 18.6537Z" fill="white"/>
<path fill-rule="evenodd" clip-rule="evenodd" d="M32.574 15.5004L33.6677 14.4036V10.1535H32.574V15.5004Z" fill="white"/>
<path fill-rule="evenodd" clip-rule="evenodd" d="M35.0349 14.4036L36.1286 15.5004V10.1535H35.0349V14.4036Z" fill="white"/>
<path fill-rule="evenodd" clip-rule="evenodd" d="M37.3598 19.7505L52.2607 19.7505V18.6537L38.4535 18.6537L37.3598 19.7505Z" fill="white"/>
<path fill-rule="evenodd" clip-rule="evenodd" d="M35.0349 22.082V56.4934H36.1286V20.9852L35.0349 22.082Z" fill="white"/>
<path fill-rule="evenodd" clip-rule="evenodd" d="M32.574 20.9844V56.4934H33.6677V22.0812L32.574 20.9844Z" fill="white"/>
<path fill-rule="evenodd" clip-rule="evenodd" d="M34.3513 15.1361L37.4253 18.2188L34.3513 21.3015L31.2773 18.2188L34.3513 15.1361ZM34.3513 16.6872L32.8241 18.2188L34.3513 19.7504L35.8785 18.2188L34.3513 16.6872Z" fill="white"/>
<path fill-rule="evenodd" clip-rule="evenodd" d="M34.3379 76.8231L7.6593 60.1491L3.74139 8.727L34.3713 3.57296L63.5956 8.70426L59.6722 60.1976L34.3379 76.8231ZM63.0372 62.1964L34.3839 81L4.29799 62.1964L0 5.78571L34.3839 0L67.3352 5.78571L63.0372 62.1964Z" fill="white"/>
</svg>
